<svg width="720" height="720" viewBox="0 0 720 720" fill="none" xmlns="http://www.w3.org/2000/svg">
<g clip-path="url(#clip0)">
<path d="M503.074 353.006L502.149 353.314L501.326 352.594L502.457 352.491L503.074 353.006ZM510.274 348.583L510.686 347.349H511.817L511.509 349.2L510.274 348.583ZM498.446 358.457V358.354L498.549 358.457H498.446ZM479.52 353.931L481.783 351.051L479.931 350.64L482.091 345.497V343.029L486.823 339.223L487.646 340.971L490.834 336.754L494.743 333.771L493.714 331.2L488.88 328.629L490.114 324.926L489.189 323.691L490.011 319.783L492.583 317.211L495.771 318.343L498.137 317.006L501.634 319.577L503.28 317.726L508.937 316.491L513.36 317.417L517.269 313.611L518.914 317.417L521.28 318.343L520.766 320.709L522.411 324.617L525.394 328.629L525.806 335.52L524.263 339.326L521.691 340.457L517.269 347.863L513.566 348.377L510.994 346.629L508.731 348.891L505.131 348.686L499.269 351.051L500.091 352.491L497.314 356.709L498.034 358.457H489.806L486.72 358.971L481.783 362.469L479.006 361.749L478.8 357.737L479.52 353.931Z" fill="#CEE3F5" stroke="#6E6E6E" stroke-width="0.4"/>
<path d="M290.149 311.76L292 311.966L288.297 312.48L289.017 311.554L290.149 311.76ZM249.623 295.817L250.24 290.057L249.211 282.549L249.931 272.366L252.709 271.749L253.017 269.074L256.411 265.371L256.823 261.463L259.086 258.686L258.057 254.263L256 251.794L256.926 249.12L257.234 241.714L261.143 237.497L261.349 233.28L264.64 231.223L271.326 230.709L273.794 229.577L280.891 231.737L285.623 237.189L289.84 236.263L293.029 234.309L295.806 234.411L301.154 237.806L309.486 238.629L311.954 235.749L318.434 233.691H325.12L330.571 235.851L334.171 236.366L334.891 234.72L341.886 230.503L344.046 230.606L348.057 236.16L349.086 242.331L353.303 244.183L352.686 250.149L348.983 252.411L347.44 252.103L343.84 257.349L342.709 261.977L341.063 262.697L340.651 267.429L337.771 268.766L337.257 273.6L332.217 277.509L332.011 281.109L328.103 287.383L329.337 288.72L326.56 290.777L324.503 294.583L318.229 289.234L317.303 290.777L314.011 289.749L303.109 299.829L302.697 305.794L300.949 308.777L297.76 307.749L298.171 311.143L293.337 311.451L289.84 310.629L287.269 312.48L280.069 313.611L274.926 310.526L272.663 304.457L268.651 298.8L264.434 295.714L259.806 295.097L249.623 295.817Z" fill="#462686" stroke="#6E6E6E" stroke-width="0.4"/>
<path d="M280.08 349.817L278.743 348.583L280.286 346.937L281.314 347.966L280.08 349.817Z" fill="#CEE3F5" stroke="#6E6E6E" stroke-width="0.4"/>
<path d="M566.537 419.143L565.509 418.629L566.331 417.497L567.874 416.983L566.537 419.143ZM562.217 400.629L563.04 399.394L564.583 405.874L561.806 403.2L562.217 400.629ZM565.92 397.131L566.229 392.297L567.36 393.017L567.669 395.383L565.92 397.131ZM508.011 366.583L509.451 366.789L510.069 368.537L507.291 367.509L508.011 366.583ZM525.189 450V449.28L524.777 448.663L524.571 448.457L523.749 447.84L523.234 447.326L523.131 447.223V447.017L521.074 435.806L519.429 433.749L518.606 432.823L518.297 432.72L517.68 432.103V432H517.577L516.446 432.309L516.137 433.749L511.817 432.72L507.6 431.074L502.971 428.606L499.577 428.091L495.771 424.903L492.583 423.874L487.543 414.514L487.337 409.783L483.531 405.36L480.034 403.611L482.091 400.731L480.343 396.514L480.96 393.84L479.006 391.989L479.52 388.08L482.606 386.537L486.617 380.057L489.497 378L489.703 375.429L486.206 374.4L487.44 370.491L489.806 369.977V363.6L486.72 358.971L489.806 358.457H498.034V358.971L498.446 358.457H498.549L498.857 359.794L496.594 367.406L499.166 370.697L498.446 373.063L501.84 369.257L503.074 370.8L510.48 371.623L515.829 369.051L513.566 366.994L514.183 362.674L517.886 358.971L548.743 376.251L548.331 380.366L562.011 390.446L561.497 394.046L558.309 402.069L558.926 404.846L564.274 409.269L564.891 411.531L562.526 415.646L564.069 419.246L562.526 421.817L563.143 425.314L565.611 429.429L567.051 435.189L566.229 436.114L572.503 439.509L572.4 440.64L568.697 443.623L562.423 446.503L559.029 446.606L555.634 448.766L553.577 447.531L550.286 447.84L549.463 450L546.377 451.44L541.131 450.103L538.971 451.44L535.783 451.131L532.594 448.663L530.434 450.309L525.189 450Z" fill="#462686" stroke="#6E6E6E" stroke-width="0.4"/>
<path d="M112.526 286.869L113.246 288.617L112.526 288L109.44 287.28L112.526 286.869ZM132.48 278.846L131.863 281.829L129.703 283.063V285.223L123.223 290.777L122.4 292.731L119.211 290.777L113.349 288.72L114.274 287.383L109.337 284.297L109.131 281.314L107.589 282.034L106.149 274.526L108.514 273.909L111.394 271.029L112.937 267.223L118.183 265.886L123.737 265.783L128.983 271.749L130.731 277.303L128.674 280.389L132.48 278.846Z" fill="#CEE3F5" stroke="#6E6E6E" stroke-width="0.4"/>
<path d="M80.8457 255.806L83.0057 256.114L83.4171 257.04L80.5371 257.246L80.8457 255.806ZM90.9257 257.863L87.5314 255.909L86.9142 253.234L90.4114 252.309L88.9714 250.971L85.2685 253.234L87.84 249.12L82.5942 251.177L75.8057 246.034L80.1257 244.903H84.9599L89.0742 242.743L101.931 242.537L102.137 246.137L99.8742 247.269L102.034 248.503V251.074L97.3028 251.589L93.7028 253.029L90.9257 257.863Z" fill="#CEE3F5" stroke="#6E6E6E" stroke-width="0.4"/>
<path d="M9.05143 225.257L7.40571 224.434L8.43429 223.406L9.36 224.331L9.05143 225.257ZM14.0914 220.731L16.7657 223.406L16.3543 224.229L13.8857 223.303L14.0914 220.731ZM19.0286 220.629L19.6457 221.966L19.0286 222.377L18.4114 221.966L19.0286 220.629ZM21.7029 212.503L23.1429 212.811L22.1143 214.56L20.88 214.251L21.7029 212.503ZM9.05143 208.903L9.56571 209.211L8.74286 210.343L7.92 208.697L9.05143 208.903ZM1.95429 204.069L2.98286 204.789L0.205714 206.64L0 204.891L1.95429 204.069Z" fill="#CEE3F5" stroke="#6E6E6E" stroke-width="0.4"/>
<path d="M702.617 391.474L703.234 391.886L702.926 392.914L702.514 391.886L702.617 391.474Z" fill="#CEE3F5" stroke="#6E6E6E" stroke-width="0.4"/>
<path d="M315.36 37.0286L316.594 38.0571L315.051 39.4971L313.714 37.1314L315.36 37.0286ZM320.503 44.5371L320.092 50.1943L321.12 51.9429L315.051 55.44L308.366 62.9486L309.806 67.9886L306.309 73.7486L303.223 74.9829L298.903 56.16L292.526 51.12L290.469 45.6686L287.486 44.4343L285.017 37.2343L288.103 31.68L291.6 29.2114L292.32 18.4114L291.6 16.56L292.937 7.61143L294.686 4.42286L300.034 1.13143L305.692 0L309.394 1.64571L308.469 2.77714L310.834 6.58286L316.286 2.67429L317.006 4.93714L314.023 9.56571L311.554 10.8L312.48 16.0457L316.389 18.6171L317.314 22.7314L312.377 30.1371L308.263 32.5029L307.646 36.1029L310.114 39.0857L313.509 38.9829V41.3486L315.874 39.7029L317.623 44.2286L320.503 44.5371Z" fill="#462686" stroke="#6E6E6E" stroke-width="0.4"/>
<path d="M640.08 465.531L640.183 466.971L639.051 466.766V465.531H640.08ZM614.674 577.029L611.589 577.131L609.017 574.869L605.109 573.943L602.229 571.474L599.451 565.92L599.04 558.823L599.966 557.074L596.571 551.211L595.543 545.76L598.011 537.326L600.686 536.503L601.406 533.417L606.446 524.674L606.549 521.074L604.389 516.857L604.697 514.594L602.949 511.2L602.023 502.457L606.343 495.771L606.549 491.143L610.046 491.554L613.543 488.88L616.526 489.497L617.246 487.749L621.771 487.029L628.251 482.606L628.149 485.486L630.514 484.766L629.074 482.811L632.571 477.874L632.674 481.577L635.04 477.36L634.731 475.406L637.611 472.834L636.171 470.263L636.994 467.897L640.08 470.263L641.006 468L643.783 466.971L645.634 461.726L645.017 459.566L648.309 454.217L650.88 460.08L654.069 463.783L655.714 470.469L656.434 478.903L658.492 485.177L656.229 489.806L654.583 488.777L653.451 484.869L651.189 485.897L652.937 494.949L649.234 501.429L649.851 504.823L648.514 511.611L646.046 517.371L641.417 531.051L638.229 542.16L635.143 550.903L632.571 561.086L628.663 571.166L624.651 573.429L621.051 573.531L614.674 577.029Z" fill="#CEE3F5" stroke="#6E6E6E" stroke-width="0.4"/>
<path d="M517.886 358.971L518.709 353.109L524.571 352.594L523.646 350.743L519.429 352.183L517.269 350.331V347.863L521.691 340.457L524.263 339.326L525.806 335.52L525.394 328.629L522.411 324.617L520.766 320.709L521.28 318.343L518.914 317.417L517.269 313.611L520.766 310.114L529.714 306.617L531.463 310.217H534.137L535.166 311.76L542.16 311.863L553.063 318.96H556.457L565.406 320.914L568.183 316.903L576.206 313.303L579.188 316.183L585.874 316.08L581.143 322.766L577.954 325.851L577.749 357.737L582.377 363.806L582.48 364.937L580.217 367.2L576.823 367.611L577.131 369.36L574.457 372.24L570.651 373.989L571.063 376.046L568.8 379.234L567.154 383.966L563.863 389.931L562.011 390.446L548.331 380.366L548.743 376.251L517.886 358.971Z" fill="#462686" stroke="#6E6E6E" stroke-width="0.4"/>
<path d="M474.686 366.377L474.789 368.949L474.068 369.257V368.331L474.686 366.377ZM493.714 331.2L486.926 336.96L486.823 339.223L482.091 343.029V345.497L479.931 350.64L476.64 354.137L477.154 355.783L479.52 353.931L478.8 357.737L479.006 361.749L477.051 362.777L475.92 364.32L474.48 363.497L472.731 368.229L472.834 371.109L473.04 372.651L474.068 373.166L475.92 376.046L475.714 378.514L474.686 384.583L475.611 388.697L474.686 393.429L477.154 398.057L475.406 400.731L478.183 407.52L484.046 413.28L484.766 417.189L487.44 420.686L473.143 422.846L472.937 422.949L468.206 428.091L468.103 432L469.646 430.663L471.086 434.366L470.674 440.64L468.309 448.663L469.543 452.366L474.068 456.789L478.08 457.509L477.874 455.657L480.651 454.937V466.046L478.697 464.297L475.2 466.149L468.103 457.509L462.034 456.069L458.126 449.794L453.908 453.703L447.943 452.674L442.389 450.411L441.771 446.503L433.131 448.046L434.057 445.783L430.457 443.623L429.326 445.063L426.343 444.446L422.229 445.68L418.114 445.063L415.543 446.914L414.926 443.52L416.16 439.303L414.823 435.497L412.251 432.72L412.868 422.331L411.326 418.834L411.634 412.56H400.629L401.451 409.371L398.674 410.091H392.091L391.989 414.309L390.651 415.131V418.834H380.468L375.017 419.554L368.229 407.623L366.789 400.937L364.32 400.32L350.434 400.629L337.268 400.423L330.891 402.171L328.834 399.703L331.406 399.394L330.789 393.634L336.24 389.931L338.708 391.269L341.794 390.343L347.451 386.846L347.76 392.091L351.463 391.371L354.651 387.257L357.737 384.686L360.514 383.863L363.497 378.206L362.983 374.709L363.497 368.229L365.966 365.966L368.743 360.72L372.651 358.663L376.56 354.343L376.251 351.566L378.308 345.806L377.486 341.177L379.234 336.549V331.303L383.966 322.869L384.068 319.886L384.171 315.566L383.246 312.789L384.789 312.069L387.977 307.543L390.754 305.589L393.531 305.486L398.88 308.674L401.143 311.76L403.508 311.451L406.491 312.789H410.914L416.983 314.126L421.097 308.16L425.314 310.217L434.88 305.794L437.554 307.337L441.977 306.411L442.491 303.943L446.503 304.971L449.177 304.457L452.057 306.103L455.554 306.309L457.714 304.971L460.491 306L463.371 310.114L468.926 312.891L471.908 310.526L475.611 312.274L477.977 309.703L484.56 315.771L487.234 316.491L487.44 318.754L490.011 319.783L489.189 323.691L490.114 324.926L488.88 328.629L493.714 331.2Z" fill="#CEE3F5" stroke="#6E6E6E" stroke-width="0.4"/>
<path d="M700.869 534.446L703.954 537.12L703.646 538.663L699.634 538.149L698.503 536.091L700.869 534.446ZM613.954 460.903L613.131 461.52L612.926 462.549L611.897 460.389L613.954 460.903Z" fill="#CEE3F5" stroke="#6E6E6E" stroke-width="0.4"/>
<path d="M143.691 106.149L171.771 123.943L177.943 127.954L162.411 128.16L168.789 179.794L171.977 206.846L174.446 208.8L173.109 216.206L139.68 216.72L135.463 217.851L127.543 217.543L126 220.423L121.68 216L118.903 216.617L118.183 222.377L114.274 223.611L109.749 220.32L108.103 217.131L105.737 216.103L103.474 211.371L100.594 211.68L95.8629 207.154H90.72L84.3429 208.8L78.5829 208.903L76.8343 214.971L77.4514 207.463L79.8171 201.806L80.9486 195.429L79.2 186.069L76.4229 182.263L78.9943 174.651L76.1143 169.92L74.88 170.537L72.6171 166.011L71.4857 169.714L72.2057 164.469L106.663 163.749L105.84 152.846L105.12 150.48L106.457 147.909L109.851 145.44L115.097 143.28L114.686 119.314L143.691 118.8V106.149Z" fill="#CEE3F5" stroke="#6E6E6E" stroke-width="0.4"/>
<path d="M171.771 123.943L143.691 106.149V102.446L143.486 92.5714L152.743 85.1657L156.857 83.9314L169.097 82.6971L170.949 83.52L173.211 79.8171L181.131 73.44L187.509 71.28L188.229 68.8114L185.863 65.1086L187.2 61.7143L194.503 60.0686L193.474 57.4971L197.177 56.5714L208.389 56.9829L210.034 52.4571L206.743 50.1943L204.48 44.9486L204.377 35.8971L202.526 30.6514L203.451 29.1086L199.337 25.4057L203.451 24.9943L207.771 22.1143L208.389 20.16L215.794 16.4571L217.749 17.6914L220.011 14.8114L228.034 9.97715L242.023 8.53715L244.594 6.27429L249.326 6.58286L252.514 5.04L260.949 5.14286L264.96 7.81715L273.394 4.93715L274.629 3.08572L279.669 5.04L283.886 2.88L288.514 5.45143L294.686 4.42286L292.937 7.61143L291.6 16.56L292.32 18.4114L291.6 29.2114L288.103 31.68L285.017 37.2343L287.486 44.4343L290.469 45.6686L292.526 51.12L298.903 56.16L303.223 74.9828L301.166 76.1143L304.56 81.2571L306 86.0914L305.691 94.6286L307.029 98.64L305.28 104.297L306.926 108.617L306.309 112.011L303.223 113.451L302.503 115.817L307.543 122.709L308.16 127.954L311.349 131.451L314.229 130.834L321.634 133.509L325.234 140.606L286.046 165.703L271.851 178.766L257.76 181.954L249.737 183.6L247.886 181.954L249.223 180L248.914 176.091L241.714 173.726L239.76 171.669L237.291 172.183L235.029 169.509L230.914 167.554L230.606 164.16L177.943 127.954L171.771 123.943Z" fill="#CEE3F5" stroke="#6E6E6E" stroke-width="0.4"/>
<path d="M570.446 211.269L573.634 214.046L571.269 213.634L569.623 212.503L570.446 211.269ZM597.189 239.863L593.383 242.949L590.709 241.92L587.006 238.32L584.949 234.926L580.526 231.634L577.44 227.211L571.063 224.023L565.92 222.994L563.246 224.126L562.114 222.377L556.457 224.331L551.829 220.114L548.949 227.006L546.583 223.92L544.629 225.463L539.897 225.566L538.971 217.954L543.6 207.771L542.983 205.303L544.114 200.366L547.612 200.777L548.537 198.103L554.709 196.251L558.206 191.931L560.983 197.486L562.937 204.48L563.554 209.211L565.509 214.457L567.771 216.823L569.109 214.663L572.709 220.011L574.766 219.291L576.823 221.966L580.217 222.48L584.743 228.754L590.091 232.046L594.206 238.423L597.189 239.863Z" fill="#CEE3F5" stroke="#6E6E6E" stroke-width="0.4"/>
<path d="M298.491 317.931L300.137 318.857L297.771 322.766L295.92 322.251L298.491 317.931ZM320.709 331.509L320.914 341.589L307.646 341.691L303.634 340.149L307.543 333.874V330.069L309.189 331.611L320.709 331.509Z" fill="#CEE3F5" stroke="#6E6E6E" stroke-width="0.4"/>
<path d="M720 527.657L719.589 531.154L717.017 531.36L718.457 527.04L720 527.657Z" fill="#CEE3F5" stroke="#6E6E6E" stroke-width="0.4"/>
<path d="M77.04 234.926L73.6457 228.137L71.4857 225.463L68.4 224.64L71.7943 222.994L76.8343 214.971L78.5829 208.903L84.3429 208.8L90.72 207.154H95.8629L100.594 211.68L103.474 211.371L105.737 216.103L108.103 217.131L109.749 220.32L114.274 223.611L114.789 227.006L117.051 231.326L115.92 233.177L120.24 236.16L122.297 239.863V244.594L116.331 244.697L113.863 245.623L107.589 243.874V242.743L101.931 242.537L89.0743 242.743L84.96 244.903H80.1257L75.8057 246.034L75.3943 243.874L75.4972 239.554L76.1143 238.629H83.52V237.189L88.6629 236.16L89.4857 234.617L95.9657 237.6L100.697 236.674L99.4629 234.514L96.3772 235.749L94.2172 233.897L89.7943 232.56L86.1943 234.72L77.04 234.926Z" fill="#CEE3F5" stroke="#6E6E6E" stroke-width="0.4"/>
<path d="M607.166 455.04L607.372 457.611L604.8 455.657L606.24 455.863L607.166 455.04ZM598.423 453.6L596.674 452.571L596.777 448.766L597.909 449.074L598.423 453.6Z" fill="#CEE3F5" stroke="#6E6E6E" stroke-width="0.4"/>
<path d="M585.463 252.411L584.537 253.234L585.463 254.057L586.903 255.394L592.766 254.16L595.44 254.983L592.971 258.171L594.617 261.874L599.554 268.971L604.8 272.674L630.411 281.623L639.154 281.726L625.474 294.583L612.514 308.263L603.977 307.749L596.674 310.32L593.691 313.509L588.034 314.126L585.874 316.08L579.188 316.183L576.206 313.303L568.183 316.903L565.406 320.914L556.457 318.96H553.063L542.16 311.863L535.166 311.76L534.137 310.217L533.006 308.88L533.211 304.251L528.994 303.84L526.011 299.52L523.954 292.629L520.149 289.749L515.108 283.68L509.349 282.446L510.377 277.2L517.371 276.891L518.606 275.246L518.297 268.046L520.457 260.949L520.149 258.274L522.823 255.497L526.011 255.6L526.834 247.68L528.274 246.549L531.874 240.583L536.091 239.554L537.223 233.589L538.56 231.737L539.897 225.566L544.628 225.463L546.583 223.92L548.948 227.006L551.828 220.114L556.457 224.331L562.114 222.377L563.246 224.126L565.92 222.994L571.063 224.023L577.44 227.211L580.526 231.634L584.948 234.926L587.006 238.32L590.708 241.92L585.154 250.149L585.463 252.411Z" fill="#CEE3F5" stroke="#6E6E6E" stroke-width="0.4"/>
<path d="M195.223 307.44L193.989 307.337H195.223V307.44ZM156.446 308.366L158.091 303.84L157.577 301.474L154.491 300.343L153.463 297.874L147.291 296.023L149.554 293.657L149.966 290.366L148.32 286.766H150.48L152.229 281.829L150.171 278.846L155.006 277.509L152.64 275.966L153.463 270.411L151.611 270.617L150.686 265.886L152.229 263.931L155.006 261.463L161.177 263.52L163.44 262.183L163.646 259.406L165.806 260.229L167.349 258.789L167.451 262.491L169.406 263.417L171.154 261.36L173.623 261.257L176.297 262.183L178.56 265.783L181.131 267.634L189.874 265.166L193.886 265.474L197.794 270L198.411 269.177L197.691 272.983L199.131 274.114L200.16 280.286L197.28 283.68L195.634 290.263L193.783 294.274L196.457 302.811L198.103 303.223L197.589 306.926L193.474 307.234L187.611 306.309L171.463 308.366L162.309 311.657L156.96 314.434L156.446 308.366Z" fill="#CEE3F5" stroke="#6E6E6E" stroke-width="0.4"/>
<path d="M195.223 307.44V307.337H196.251L197.589 306.926L198.103 303.223L196.457 302.811L193.783 294.274L195.634 290.263L197.28 283.68L200.16 280.286L199.131 274.114L197.691 272.983L198.411 269.177L196.251 258.377L197.691 256.011L215.589 255.703L220.217 254.366L221.76 254.983L220.937 258.789L225.154 261.874L223.817 268.046L226.491 269.589L225.154 275.451L228.137 279.36L226.903 279.977L227.623 287.691L226.594 292.011L228.857 295.509L232.457 298.286L230.811 300.549L225.051 301.166L218.983 303.737L215.28 306.103L208.697 307.954L204.171 310.423L201.806 308.88L195.223 307.44Z" fill="#462686" stroke="#6E6E6E" stroke-width="0.4"/>
<path d="M471.703 493.509L468.926 493.611L465.223 496.389L463.166 496.286L459.257 501.531L456.686 506.263L454.011 507.189L449.691 505.646L447.737 506.571L445.166 504.926L441.566 504.823L438.994 502.56L432.617 501.943L425.417 503.383L420.069 499.063L414.514 493.611L413.383 490.217V462.343L430.766 462.24L429.531 460.389L430.971 456.891L430.354 450.206L431.28 448.251L430.457 443.623L434.057 445.783L433.131 448.046L441.771 446.503L442.389 450.411L447.943 452.674L453.909 453.703L458.126 449.794L462.034 456.069L468.103 457.509L475.2 466.149L478.697 464.297L480.651 466.046V454.937L477.874 455.657L478.08 457.509L474.069 456.789L469.543 452.366L468.309 448.663L470.674 440.64L471.086 434.366L469.646 430.663L473.863 427.269L475.097 424.594L472.937 422.949L473.143 422.846L487.44 420.686L486.514 423.154L489.291 423.669L491.349 425.726L492.583 423.874L495.771 424.903L499.577 428.091L502.971 428.606L507.6 431.074L511.509 435.291L514.08 441.257L510.994 443.314L511.611 446.297L510.274 448.56L510.377 454.834L511.406 458.229L507.909 459.977L508.114 464.091L506.571 468.514L508.217 471.6L509.966 471.291L484.149 479.829L485.691 485.589L480.96 485.383L477.257 486.309L472.526 489.189L471.703 493.509Z" fill="#CEE3F5" stroke="#6E6E6E" stroke-width="0.4"/>
<path d="M425.417 503.383L432.617 501.943L438.994 502.56L441.566 504.823L438.891 504.72L435.086 507.189L432.309 506.88L427.269 510.891L424.8 506.674L422.023 506.777L409.063 509.349L404.743 509.554L404.949 542.674L396.309 542.983L396.411 568.491L396.514 603.154L392.914 604.491L388.8 608.709L385.92 607.474L380.983 608.091L374.503 606.24L373.989 601.611L370.08 600.274L369.36 602.949L366.583 605.006L365.451 604.8L359.691 599.04L356.4 592.971L353.52 583.611L352.491 578.16L351.874 569.211L349.2 563.143L349.714 551.006L348.377 545.76L344.674 541.234L343.543 538.251L339.737 532.389L337.68 526.32L330.171 513.257L326.366 508.217L325.234 502.869L325.646 500.297L327.909 499.371L332.434 500.091L337.68 497.52L344.366 501.531L346.629 501.326L383.04 501.223L385.714 504.411L396.72 505.749L399.291 505.337L403.303 506.983L408.446 506.777L425.417 503.383Z" fill="#CEE3F5" stroke="#6E6E6E" stroke-width="0.4"/>
<path d="M486.72 358.971L489.806 363.6V369.977L487.44 370.491L481.989 369.771L481.783 372.651L479.931 373.989L474.068 373.166L473.04 372.651L472.834 371.109L477.051 367.303L475.92 364.32L477.051 362.777L479.006 361.749L481.783 362.469L486.72 358.971Z" fill="#CEE3F5" stroke="#6E6E6E" stroke-width="0.4"/>
<path d="M647.794 253.234L647.589 269.074L639.154 281.726L630.411 281.623L604.8 272.674L599.554 268.971L594.617 261.874L592.971 258.171L595.44 254.983L598.217 250.663L603.257 256.731L607.063 259.817L613.131 260.229L620.434 256.32L626.091 257.966L634.114 253.749L641.006 254.057L645.326 252.514L647.794 253.234Z" fill="#CEE3F5" stroke="#6E6E6E" stroke-width="0.4"/>
<path d="M639.154 281.726L647.589 269.074L647.794 253.234L653.349 251.486L659.417 250.354L664.046 246.96L668.366 248.297L666.514 254.057L667.234 259.509L669.086 260.331L664.971 261.566L664.149 269.177L660.446 274.423L659.314 277.611L655.303 282.137L655.097 284.091L651.086 290.263L648.103 297.874L644.709 303.634L638.537 312.377L626.914 324.72L621.669 329.657L608.811 337.166L599.349 345.086L587.211 357.84L582.48 364.937L582.377 363.806L577.749 357.737L577.954 325.851L581.143 322.766L585.874 316.08L588.034 314.126L593.691 313.509L596.674 310.32L603.977 307.749L612.514 308.263L625.474 294.583L639.154 281.726Z" fill="#CEE3F5" stroke="#6E6E6E" stroke-width="0.4"/>
<path d="M346.217 236.16L345.806 237.806L347.863 237.086L350.64 239.966L351.36 244.389L352.697 244.903L353.417 249.84L352.491 252.926L352.903 256.32L354.96 260.537L358.251 263.314L350.023 263.931L345.189 263.52L343.131 266.503L346.731 270.617L353.931 276.583L356.606 284.914L354.343 287.383L350.023 295.92L347.246 298.08L348.891 298.903L350.126 310.114L352.594 311.966L354.034 317.623L362.057 325.234L362.983 330.686L362.674 335.006L354.651 332.434L351.669 332.743L348.789 330.994L346.32 331.509L337.886 331.406L337.371 330.48L321.017 330.377L320.709 331.509L309.189 331.611L307.543 330.069L308.88 323.691L306.103 319.783L305.897 316.08L303.223 316.389L300.24 314.949L299.931 311.04L296.229 311.246L296.949 308.777L298.697 305.794L299.109 299.829L310.011 289.749L313.303 290.777L314.229 289.234L320.503 294.583L322.56 290.777L325.337 288.72L324.103 287.383L328.011 281.109L328.217 277.509L333.257 273.6L333.771 268.766L336.651 267.429L337.063 262.697L338.709 261.977L339.84 257.349L343.44 252.103L344.983 252.411L348.686 250.149L349.303 244.183L345.086 242.331L344.057 236.16H346.217ZM346.731 236.057L346.834 236.263L346.526 236.057H346.731Z" fill="#CEE3F5" stroke="#6E6E6E" stroke-width="0.4"/>
<path d="M337.886 331.406L346.32 331.509L348.789 330.994L351.668 332.743L354.651 332.434L362.674 335.006L362.983 330.686L365.451 325.543L366.171 320.091L373.886 317.931L377.28 319.371L382.731 318.549L384.068 319.886L383.966 322.869L379.234 331.303V336.549L377.486 341.177L378.308 345.806L376.251 351.566L376.56 354.343L372.651 358.663L368.743 360.72L365.966 365.966L363.497 368.229L362.983 374.709L363.497 378.206L360.514 383.863L357.737 384.686L354.651 387.257L351.463 391.371L347.76 392.091L347.451 386.846L341.794 390.343L338.708 391.269L336.24 389.931L334.389 387.977L330.274 389.726L327.086 393.326L325.44 389.829L319.268 384.069L322.457 380.366L323.897 381.703L326.468 378.514L324.206 377.383L323.074 370.389L327.394 370.903L330.789 370.183L330.48 366.377L333.771 366.583L335.211 370.389L339.531 371.006L341.897 368.023L344.88 371.52L348.171 363.291L347.451 358.766L348.377 355.474L345.086 352.594L342.617 351.771L342.926 348.377L348.068 342.103L345.6 338.091L342.206 337.68L337.474 339.531L336.549 336.137L337.886 331.406Z" fill="#CEE3F5" stroke="#6E6E6E" stroke-width="0.4"/>
<path d="M71.4858 169.714L71.0743 169.097L71.6915 163.646L82.8001 162.72L90.7201 162.926L92.4686 159.12L95.9658 154.8L97.5086 144.411L99.6686 140.709L103.68 138.857L105.84 134.846L111.291 130.629L114.583 118.903L117.257 118.183L120.549 112.937L120.034 110.571L124.149 109.234L130.011 110.571L134.537 110.469L137.314 108.206L142.766 107.794L142.457 102.549L143.691 102.446V106.149V118.8L114.686 119.314L115.097 143.28L109.851 145.44L106.457 147.909L105.12 150.48L105.84 152.846L106.663 163.749L72.2058 164.469L71.4858 169.714Z" fill="#CEE3F5" stroke="#6E6E6E" stroke-width="0.4"/>
<path d="M245.623 295.817L238.526 296.64L236.263 297.257L237.6 296.64L235.749 293.246L236.263 290.469L235.852 272.571L234.206 270.514L233.383 264.24L228.446 261.051L229.474 255.497L231.429 254.983L234.206 251.28L239.143 251.589L242.434 247.371L242.126 244.594L246.343 242.949L252.926 249.12L252 251.794L254.057 254.263L255.086 258.686L252.823 261.463L252.411 265.371L249.017 269.074L248.709 271.749L245.932 272.366L245.211 282.549L246.24 290.057L245.623 295.817Z" fill="#CEE3F5" stroke="#6E6E6E" stroke-width="0.4"/>
<path d="M242.434 247.371L239.143 251.589L234.206 251.28L231.429 254.983L229.474 255.497H225.874L220.217 254.366L215.589 255.703L197.691 256.011L196.251 258.377L198.411 269.177L197.794 270L193.886 265.474L189.874 265.166L181.131 267.634L178.56 265.783L176.297 262.183L173.623 261.257L173.726 255.703L176.194 252.411L175.577 248.811L181.851 245.931L183.291 242.537L182.469 240.891L184.834 239.966L183.497 237.291L186.789 234.103L191.314 236.777L193.166 235.646L192.96 231.84L196.149 232.354L196.56 228.857L199.851 226.697L203.657 227.417L204.171 224.846L206.537 224.743L212.194 221.76L214.663 219.497L219.189 219.394L223.2 220.834L222.686 224.023L226.8 231.737L229.68 232.56L229.886 237.189L234.926 240.891L239.863 240.274L241.097 242.743L239.554 243.771L242.434 247.371Z" fill="#CEE3F5" stroke="#6E6E6E" stroke-width="0.4"/>
<path d="M236.263 297.257L234.617 297.566L232.457 298.286L228.857 295.509L226.594 292.011L227.623 287.691L226.903 279.977L228.137 279.36L225.154 275.451L226.491 269.589L223.817 268.046L225.154 261.874L220.937 258.789L221.76 254.983L220.217 254.366L225.874 255.497H229.474L228.446 261.051L233.383 264.24L234.206 270.514L235.851 272.571L236.263 290.469L235.749 293.246L237.6 296.64L236.263 297.257Z" fill="#462686" stroke="#6E6E6E" stroke-width="0.4"/>
<path d="M252.926 249.12L246.343 242.949L242.126 244.594L242.434 247.371L239.554 243.771L241.097 242.743L239.863 240.274L234.926 240.891L229.886 237.189L229.68 232.56L226.8 231.737L222.686 224.023L223.2 220.834L229.783 220.011L232.869 217.337L251.794 216.514L254.983 213.223L257.657 206.846L258.069 201.6L257.76 181.954L271.851 178.766L286.046 165.703L325.234 140.606L338.503 143.691L345.086 149.04L351.566 145.44L353.314 154.8L353.417 159.429L357.223 164.571L356.606 166.011L360.206 169.92L358.354 174.24L356.194 201.6L346.526 212.194L341.897 218.777L341.383 221.554L338.606 224.537L340.046 230.606L337.886 230.503L330.891 234.72L330.171 236.366L326.571 235.851L321.12 233.691H314.434L307.954 235.749L305.486 238.629L297.154 237.806L291.806 234.411L289.029 234.309L285.84 236.263L281.623 237.189L276.891 231.737L269.794 229.577L267.326 230.709L260.64 231.223L257.349 233.28L257.143 237.497L253.234 241.714L252.926 249.12Z" fill="#CEE3F5" stroke="#6E6E6E" stroke-width="0.4"/>
<path d="M351.566 145.44L345.086 149.04L338.503 143.691L325.234 140.606L321.634 133.509L314.229 130.834L311.349 131.451L308.16 127.954L307.543 122.709L302.503 115.817L303.223 113.451L306.309 112.011L306.926 108.617L305.28 104.297L307.029 98.64L305.692 94.6286L306 86.0914L304.56 81.2571L301.166 76.1143L303.223 74.9829L306.309 73.7486L309.806 67.9886L308.366 62.9486L315.051 55.44L321.12 51.9429L320.092 50.1943L320.503 44.5371L328.011 48.1371L331.303 48.4457L336.754 47.3143L344.057 49.1657L346.629 51.2229L353.006 52.56L355.68 60.0686L360.617 63.9771L366.583 64.4914L372.24 65.9314L379.337 68.9143L386.331 74.0571L389.52 73.8514L393.12 71.6914L395.691 68.6057L396.617 64.4914L394.663 59.3486L396 54.6171L400.32 50.7086L409.474 46.8L414.206 46.5943L422.537 49.68V53.0743L431.383 56.3657L439.2 56.7771L440.64 59.9657L438.069 62.7429L439.303 68.8114L436.629 75.3943L439.2 85.0629V154.594V173.211H430.457V177.84L360.411 141.12L351.566 145.44Z" fill="#CEE3F5" stroke="#6E6E6E" stroke-width="0.4"/>
<path d="M148.32 286.766L149.966 290.366L149.554 293.657L147.291 296.023L153.463 297.874L154.491 300.343L157.577 301.474L158.091 303.84L156.446 308.366L156.857 314.434L150.686 312.583L141.737 307.749L131.863 299.006L123.429 294.583L122.4 292.731L123.223 290.777L129.703 285.223V283.063L131.863 281.829L132.48 278.846L136.697 278.64L139.371 279.977L140.709 286.251L139.783 287.897L142.766 290.057L145.029 289.234L146.469 285.531L148.32 286.766Z" fill="#CEE3F5" stroke="#6E6E6E" stroke-width="0.4"/>
<path d="M524.777 448.663L524.571 448.457L524.777 448.663ZM523.234 447.326L523.131 447.223V447.017V447.223L523.234 447.326ZM519.429 433.749L518.606 432.823L519.429 433.749ZM517.68 432.103L517.577 432H517.68V432.103ZM507.6 431.074L511.817 432.72L516.137 433.749L516.651 436.217L519.223 440.023L518.709 441.669L519.634 451.029L517.063 455.349L519.737 462.549L519.634 465.943L522.309 468.617L521.383 471.086L522.926 473.657L524.263 471.291L527.451 474.789L525.909 468.926L524.16 466.971L526.114 468.617L532.697 477.154L532.08 481.886L532.183 489.086L528.48 490.217L526.423 493.714L527.657 495.257L527.76 499.063L525.909 498.96L525.291 496.183L520.046 490.629L518.709 487.954L521.589 482.503L521.074 476.331L519.737 474.686L514.389 475.509L513.669 476.537L509.966 471.291L508.217 471.6L506.571 468.514L508.114 464.091L507.909 459.977L511.406 458.229L510.377 454.834L510.274 448.56L511.611 446.297L510.994 443.314L514.08 441.257L511.509 435.291L507.6 431.074Z" fill="#CEE3F5" stroke="#6E6E6E" stroke-width="0.4"/>
<path d="M75.4971 239.554L74.7771 237.189L77.04 234.926L86.1943 234.72L89.7943 232.56L94.2171 233.897L96.3771 235.749L99.4628 234.514L100.697 236.674L95.9657 237.6L89.4857 234.617L88.6628 236.16L83.52 237.189V238.629H76.1142L75.4971 239.554Z" fill="#CEE3F5" stroke="#6E6E6E" stroke-width="0.4"/>
<path d="M347.863 237.086L350.126 236.16L348.171 234.514L346.731 236.057H346.526L345.909 235.646L346.217 236.16H344.057L340.046 230.606L338.606 224.537L341.383 221.554L341.897 218.777L346.526 212.194L356.194 201.6L358.354 174.24L360.206 169.92L356.606 166.011L357.223 164.571L353.417 159.429L353.314 154.8L351.566 145.44L360.411 141.12L430.457 177.84V212.297L422.743 212.4L421.2 213.634L421.611 216.72L418.937 221.554L416.366 222.789L417.806 226.594L413.794 229.783L415.543 233.589L412.663 236.057V239.863L415.029 238.937L418.526 244.8L417.909 248.297L421.2 250.766L420.686 254.983L417.189 254.263L410.811 257.554L411.017 259.509L404.64 265.371L402.994 268.251L399.6 270.72L387.977 271.749L386.023 273.086L388.286 274.731L383.554 280.286L375.737 280.8L367.817 284.606L365.863 281.829L364.32 283.577L359.28 285.531L356.606 284.914L353.931 276.583L346.731 270.617L343.131 266.503L345.189 263.52L350.023 263.931L358.251 263.314L354.96 260.537L352.903 256.32L352.491 252.926L353.417 249.84L352.697 244.903L351.36 244.389L350.64 239.966L347.863 237.086Z" fill="#CEE3F5" stroke="#6E6E6E" stroke-width="0.4"/>
<path d="M307.646 341.691L320.914 341.589L320.709 331.509L321.017 330.377L337.371 330.48L337.886 331.406L336.549 336.137L337.474 339.531L342.206 337.68L345.6 338.091L348.069 342.103L342.926 348.377L342.617 351.771L345.086 352.594L348.377 355.474L347.451 358.766L348.171 363.291L344.88 371.52L341.897 368.023L339.531 371.006L335.211 370.389L333.771 366.583L330.48 366.377L330.789 370.183L327.394 370.903L323.074 370.389L324.206 377.383L326.469 378.514L323.897 381.703L322.457 380.366L319.269 384.069L315.257 379.851L315.154 378.72L308.777 373.474L303.223 366.377L303.943 361.851L301.063 361.44L298.183 355.371L301.166 356.4L303.12 353.829L303.429 347.554L305.074 349.303L307.851 349.2L305.074 347.76L303.429 344.88L306.309 345.086L305.589 342L307.646 341.691Z" fill="#CEE3F5" stroke="#6E6E6E" stroke-width="0.4"/>
<path d="M595.44 254.983L592.766 254.16L586.903 255.394L585.463 254.057L586.286 253.337L585.463 252.411L585.154 250.149L590.709 241.92L593.383 242.949L597.189 239.863L599.04 241.817L599.451 246.137L594 248.709L593.794 249.943L598.217 250.663L595.44 254.983Z" fill="#CEE3F5" stroke="#6E6E6E" stroke-width="0.4"/>
<path d="M479.52 388.08L476.846 382.217L475.714 378.514L475.92 376.046L474.068 373.166L479.931 373.989L481.783 372.651L481.988 369.771L487.44 370.491L486.206 374.4L489.703 375.429L489.497 378L486.617 380.057L482.606 386.537L479.52 388.08Z" fill="#CEE3F5" stroke="#6E6E6E" stroke-width="0.4"/>
<path d="M328.834 399.703L329.04 397.234L327.086 393.326L330.274 389.726L334.389 387.977L336.24 389.931L330.789 393.634L331.406 399.394L328.834 399.703ZM368.229 407.623L371.006 413.177L375.017 419.554L380.469 418.834H390.651V415.131L391.989 414.309L392.091 410.091H398.674L401.451 409.371L400.629 412.56H411.634L411.326 418.834L412.869 422.331L412.251 432.72L414.823 435.497L416.16 439.303L414.926 443.52L415.543 446.914L418.114 445.063L422.229 445.68L426.343 444.446L429.326 445.063L430.457 443.623L431.28 448.251L430.354 450.206L430.971 456.891L429.531 460.389L430.766 462.24L413.383 462.343V490.217L414.514 493.611L420.069 499.063L425.417 503.383L408.446 506.777L403.303 506.983L399.291 505.337L396.72 505.749L385.714 504.411L383.04 501.223L346.629 501.326L344.366 501.532L337.68 497.52L332.434 500.092L327.909 499.371L325.646 500.297L326.057 493.406L325.44 487.337L327.497 485.691L329.863 477.977L330.274 472.217L331.817 470.057V466.457L335.52 462.446V460.903L339.12 458.949L341.486 455.966L342.823 451.749L343.234 445.989L342.411 441.977L337.577 433.851L335.829 428.503L339.12 425.52L339.017 421.817L334.491 412.663L334.286 409.577L332.434 408.034L329.451 402.789L333.463 402.171L337.269 400.423L350.434 400.629L364.32 400.32L366.789 400.937L368.229 407.623Z" fill="#CEE3F5" stroke="#6E6E6E" stroke-width="0.4"/>
<path d="M106.149 274.526L103.474 268.149L95.8628 264.24L94.5257 260.229L90.9257 257.863L93.7028 253.029L97.3028 251.589L102.034 251.074V248.503L99.8742 247.269L102.137 246.137L101.931 242.537L107.589 242.743V243.874L113.863 245.623L116.331 244.697L122.297 244.594L121.269 246.446L124.046 247.989L126.514 246.343L128.263 249.017L132.069 246.034L136.903 247.68L140.4 244.8L143.177 244.389L144.926 248.606L144.514 250.869L148.731 253.337L146.674 255.394L149.349 256.526L149.554 260.64L152.229 263.931L150.686 265.886L151.611 270.617L153.463 270.411L152.64 275.966L155.006 277.509L150.171 278.846L152.229 281.829L150.48 286.766H148.32L146.468 285.531L145.029 289.234L142.766 290.057L139.783 287.897L140.709 286.251L139.371 279.977L136.697 278.64L132.48 278.846L128.674 280.389L130.731 277.303L128.983 271.749L123.737 265.783L118.183 265.886L112.937 267.223L111.394 271.029L108.514 273.909L106.149 274.526Z" fill="#CEE3F5" stroke="#6E6E6E" stroke-width="0.4"/>
<path d="M441.566 504.823L445.166 504.926L447.737 506.571L449.691 505.646L454.011 507.189L456.686 506.263L462.446 499.474L465.531 498.446L466.149 496.286L471.291 495.977L473.76 494.229L471.703 493.509L472.526 489.189L477.257 486.309L480.96 485.383L485.691 485.589L485.794 488.88L493.2 489.086L498.754 492.686L502.046 492.891L507.806 494.949L506.571 497.211L508.217 501.017L507.497 505.646L508.32 509.76L506.983 513.874L505.337 514.286L506.777 516.857L505.954 519.943L508.217 522.823L508.011 525.086L504.926 529.817L503.794 529.92L502.869 536.503L493.2 546.686L489.394 545.554L484.766 546.069L480.137 544.217L476.64 544.731L474.274 543.394L473.966 541.131L465.326 539.074L462.24 534.651L462.446 529.303L458.846 529.2L458.331 525.703L454.217 524.057L449.074 520.149L447.429 514.903L441.257 506.057L441.566 504.823Z" fill="#CEE3F5" stroke="#6E6E6E" stroke-width="0.4"/>
<path d="M500.194 588.343L502.251 588.549L506.777 588.343L503.794 601.303L502.354 604.8L497.006 608.709L492.171 614.571L485.383 627.12L482.091 631.543L476.743 635.966L472.32 641.52L463.989 649.029L457.611 653.451L452.263 656.331L447.429 655.817L445.166 656.743L445.371 659.006L438.891 658.594L438.171 660.754L427.68 658.594L425.829 659.931L418.629 658.8L411.223 662.811L404.537 662.503L401.246 663.531L396.411 667.131L393.737 666.823L390.651 663.017L386.64 662.606L387.051 660.446H382.423L383.863 657.463L378.309 646.869L382.011 645.12L382.629 641.211L381.086 635.246L378.72 632.16L373.474 622.286L369.36 609.84L366.583 605.006L369.36 602.949L370.08 600.274L373.989 601.611L374.503 606.24L380.983 608.091L385.92 607.474L388.8 608.709L392.914 604.491L396.514 603.154L396.411 568.491L399.703 571.166L401.76 574.869L403.817 581.554L401.863 584.331L402.48 588.754L411.017 588.343L419.863 580.114L420.891 575.383L422.331 573.737L426.137 573.429L430.149 576.72L437.657 578.571L444.343 576.617L446.811 568.491L451.337 567.36L455.143 563.76L456.48 558.206L462.96 554.194L467.897 548.331L472.834 547.097L474.069 545.04L476.64 544.731L480.137 544.217L484.766 546.069L489.394 545.554L493.2 546.686L495.36 553.68L495.154 556.149L498.034 561.086L499.166 565.509L498.754 579.909L494.331 577.851L491.657 579.497L488.777 584.743L488.983 587.931L491.966 591.737L498.857 592.869L499.063 588.034L500.194 588.343ZM466.766 621.36L474.789 617.966L474.891 615.497L477.257 612.411L470.366 604.903L468.206 605.417L462.754 608.091L459.977 612.823L456.583 615.086L459.051 620.023L462.754 624.651L465.634 625.269L466.766 621.36Z" fill="#462686" stroke="#6E6E6E" stroke-width="0.4"/>
<path d="M506.777 588.343L502.251 588.549L500.194 588.343L499.577 582.994L498.754 579.909L499.166 565.509L498.034 561.086L495.154 556.149L495.36 553.68L493.2 546.686L502.869 536.503L503.794 529.92L504.926 529.817L508.011 525.086L508.217 522.823L505.954 519.943L506.777 516.857L505.337 514.286L506.983 513.874L508.32 509.76L507.497 505.646L508.217 501.017L506.571 497.211L507.806 494.949L502.046 492.891L498.754 492.686L493.2 489.086L485.794 488.88L485.691 485.589L484.149 479.829L509.966 471.291L513.669 476.537L514.389 475.509L519.737 474.686L521.074 476.331L521.589 482.503L518.709 487.954L520.046 490.629L525.291 496.183L525.909 498.96L527.76 499.063L527.657 495.257L526.423 493.714L528.48 490.217L532.183 489.086L532.08 481.886L532.697 477.154L526.114 468.617L524.16 466.971L523.337 461.931L523.954 459.977L522.823 455.349L524.366 454.114L525.189 450L530.434 450.309L532.594 448.663L535.783 451.131L538.971 451.44L541.131 450.103L546.377 451.44L549.463 450L550.286 447.84L553.577 447.531L555.634 448.766L559.029 446.606L562.423 446.503L568.697 443.623L572.4 440.64L573.943 443.829L572.297 450.823L573.531 462.343L573.12 468.309L575.589 475.714V478.697L573.634 481.783L573.429 484.663L569.726 488.469L567.463 492.891L560.777 496.903L550.286 501.223L543.189 505.749L537.943 512.023L530.846 517.063L526.217 522.206L522.926 523.851L522.206 528.789L525.086 531.566L525.291 534.754L527.349 539.897L527.657 546.994L529.097 544.011L529.509 551.52L528.377 560.16L529.2 562.731L525.806 567.257L521.897 569.211L514.08 571.989L506.674 576L503.589 579.909L506.366 583.097L507.6 580.114L506.777 588.343Z" fill="#CEE3F5" stroke="#6E6E6E" stroke-width="0.4"/>
<path d="M498.754 579.909L499.577 582.994L500.194 588.343L499.063 588.034L498.857 592.869L491.966 591.737L488.983 587.931L488.777 584.743L491.657 579.497L494.331 577.851L498.754 579.909Z" fill="#CEE3F5" stroke="#6E6E6E" stroke-width="0.4"/>
<path d="M177.943 127.954L230.606 164.16L230.914 167.554L235.029 169.509L237.292 172.183L239.76 171.669L241.714 173.726L248.914 176.091L249.223 180L247.886 181.954L249.737 183.6L257.76 181.954L258.069 201.6L257.657 206.846L254.983 213.223L251.794 216.514L232.869 217.337L229.783 220.011L223.2 220.834L219.189 219.394L214.663 219.497L212.194 221.76L206.537 224.743L204.172 224.846L203.657 227.417L199.852 226.697L196.56 228.857L196.149 232.354L192.96 231.84L193.166 235.646L191.314 236.777L186.789 234.103L183.497 237.291L184.834 239.966L182.469 240.891L183.292 242.537L181.852 245.931L175.577 248.811L176.194 252.411L173.726 255.703L173.623 261.257L171.154 261.36L169.406 263.417L167.452 262.491L167.349 258.789L165.806 260.229L163.646 259.406L163.44 262.183L161.177 263.52L155.006 261.463L152.229 263.931L149.554 260.64L149.349 256.526L146.674 255.394L148.732 253.337L144.514 250.869L144.926 248.606L143.177 244.389L140.4 244.8L136.903 247.68L132.069 246.034L128.263 249.017L126.514 246.343L124.046 247.989L121.269 246.446L122.297 244.594V239.863L120.24 236.16L115.92 233.177L117.052 231.326L114.789 227.006L114.274 223.611L118.183 222.377L118.903 216.617L121.68 216L126 220.423L127.543 217.543L135.463 217.851L139.68 216.72L173.109 216.206L174.446 208.8L171.977 206.846L168.789 179.794L162.412 128.16L177.943 127.954Z" fill="#462686" stroke="#6E6E6E" stroke-width="0.4"/>
<path d="M396.411 568.491L396.309 542.983L404.949 542.674L404.743 509.554L409.063 509.349L422.023 506.777L424.8 506.674L427.269 510.891L432.309 506.88L435.086 507.189L438.891 504.72L441.566 504.823L441.257 506.057L447.429 514.903L449.074 520.149L454.217 524.057L458.331 525.703L458.846 529.2L462.446 529.303L462.24 534.651L465.326 539.074L473.966 541.131L474.274 543.394L476.64 544.731L474.069 545.04L472.834 547.097L467.897 548.331L462.96 554.194L456.48 558.206L455.143 563.76L451.337 567.36L446.811 568.491L444.343 576.617L437.657 578.571L430.149 576.72L426.137 573.429L422.331 573.737L420.891 575.383L419.863 580.114L411.017 588.343L402.48 588.754L401.863 584.331L403.817 581.554L401.76 574.869L399.703 571.166L396.411 568.491Z" fill="#CEE3F5" stroke="#6E6E6E" stroke-width="0.4"/>
<path d="M543.394 154.903V158.091L545.349 161.589L546.274 168.274L545.863 170.229L547.097 181.234L549.051 185.451L550.08 185.143L553.577 188.743L558.206 191.931L554.709 196.251L548.537 198.103L547.611 200.777L544.114 200.366L542.983 205.303L543.6 207.771L538.971 217.954L539.897 225.566L538.56 231.737L537.223 233.589L536.091 239.554L531.874 240.583L528.274 246.549L526.834 247.68L526.011 255.6L522.823 255.497L520.149 258.274L520.457 260.949L518.297 268.046H516.754L516.857 261.566L510.583 255.806L509.76 249.223L510.891 243.771L506.674 243.669L506.777 245.52H501.017L503.28 248.091L503.897 253.954L499.783 257.451L497.314 261.257L493.611 264.96L489.394 265.474L483.017 260.743L479.52 262.594L478.389 265.269L474.274 266.606L472.731 269.074L465.84 268.971L464.503 266.606L457.406 266.503L452.88 267.326L447.223 261.36L446.709 259.406L440.023 260.537L437.554 264.857L435.497 272.88L432.103 274.526L426.137 273.703L426.034 270.411L427.474 269.383L427.371 263.931L424.491 259.2L420.686 254.983L421.2 250.766L417.909 248.297L418.526 244.8L415.029 238.937L412.663 239.863V236.057L415.543 233.589L413.794 229.783L417.806 226.594L416.366 222.789L418.937 221.554L421.611 216.72L421.2 213.634L422.743 212.4L430.457 212.297V177.84V173.211H439.2V154.594L494.023 154.697L543.394 154.903Z" fill="#CEE3F5" stroke="#6E6E6E" stroke-width="0.4"/>
<path d="M71.6914 163.646L72 160.251L74.2628 155.52L75.8057 155.109L77.76 149.554L82.1828 140.4L89.5885 132.377L90.5143 124.971L93.6 117.051L100.491 112.731L104.297 102.96L105.943 100.594L113.966 98.7429L118.903 96.2743L122.709 91.9543L126.823 89.5886L130.526 85.1657L134.743 77.9657L135.051 75.1886L132.583 72.4114L132.789 65.0057L136.903 58.5257L137.829 52.8686L144.103 45.5657L153.154 41.3486L159.017 37.1314L163.543 28.1828L166.834 18.2057L171.257 16.7657L172.594 20.4686L176.914 24.0686L180.411 24.9943L186.583 23.4514L188.846 24.3771L192.754 23.1428L193.577 24.8914L199.337 25.4057L203.451 29.1086L202.526 30.6514L204.377 35.8971L204.48 44.9486L206.743 50.1943L210.034 52.4571L208.389 56.9829L197.177 56.5714L193.474 57.4971L194.503 60.0686L187.2 61.7143L185.863 65.1086L188.229 68.8114L187.509 71.28L181.131 73.44L173.211 79.8171L170.949 83.52L169.097 82.6972L156.857 83.9314L152.743 85.1657L143.486 92.5714L143.691 102.446L142.457 102.549L142.766 107.794L137.314 108.206L134.537 110.469L130.011 110.571L124.149 109.234L120.034 110.571L120.549 112.937L117.257 118.183L114.583 118.903L111.291 130.629L105.84 134.846L103.68 138.857L99.6685 140.709L97.5086 144.411L95.9657 154.8L92.4685 159.12L90.72 162.926L82.8 162.72L71.6914 163.646Z" fill="#CEE3F5" stroke="#6E6E6E" stroke-width="0.4"/>
<path d="M543.394 154.903L494.023 154.697L439.2 154.594V85.0629L436.629 75.3943L439.303 68.8114L438.069 62.7429L440.64 59.9657L442.903 61.5086L446.606 60.3771L459.977 62.9486L464.811 65.52L469.234 65.8286L474.789 68.5029L478.903 67.1657L486.514 61.5086L488.057 62.7429L494.023 60.7886L496.697 62.1257L500.194 61.4057L498.857 63.6686L501.737 65.9314L503.794 63.9771L506.16 66.1371L510.583 64.3886L515.417 65.6229L520.251 63.6686L525.703 79.6114L523.954 89.3829L522 93.9086L522.103 97.2L519.017 98.9486L511.714 91.3371L510.789 86.7086L507.189 82.2857L505.851 77.3486L503.794 80.9486L506.057 83.52L506.366 87.2229L508.423 91.2343L514.08 97.4057L513.977 100.491L518.297 108.309L518.4 110.571L523.029 119.211L528.994 132.069L533.211 135.977L531.463 136.08L531.257 140.709L533.006 146.057L537.429 148.731L543.394 154.903Z" fill="#462686" stroke="#6E6E6E" stroke-width="0.4"/>
<path d="M466.766 621.36L465.634 625.269L462.754 624.651L459.051 620.023L456.583 615.086L459.977 612.823L462.754 608.091L468.206 605.417L470.366 604.903L477.257 612.411L474.891 615.497L474.789 617.966L466.766 621.36Z" fill="#CEE3F5" stroke="#6E6E6E" stroke-width="0.4"/>
<path d="M517.269 313.611L513.36 317.417L508.937 316.491L503.28 317.726L501.634 319.577L498.137 317.006L495.771 318.343L492.583 317.211L490.011 319.783L487.44 318.754L487.234 316.491L484.56 315.771L477.977 309.703L475.611 312.274L471.909 310.526L468.926 312.891L463.371 310.114L460.491 306L457.817 300.034L452.16 297.051L450.514 294.583L451.337 292.32L448.251 289.337L442.491 286.354L441.771 283.577L437.863 279.154L431.794 277.611L432.103 274.526L435.497 272.88L437.554 264.857L440.023 260.537L446.709 259.406L447.223 261.36L452.88 267.326L457.406 266.503L464.503 266.606L465.84 268.971L472.731 269.074L474.274 266.606L478.389 265.269L479.52 262.594L483.017 260.743L489.394 265.474L493.611 264.96L497.314 261.257L499.783 257.451L503.897 253.954L503.28 248.091L501.017 245.52H506.777L506.674 243.669L510.891 243.771L509.76 249.223L510.583 255.806L516.857 261.566L516.754 268.046H518.297L518.606 275.246L517.371 276.891L510.377 277.2L509.349 282.446L515.109 283.68L520.149 289.749L523.954 292.629L526.011 299.52L528.994 303.84L533.211 304.251L533.006 308.88L534.137 310.217H531.463L529.714 306.617L520.766 310.114L517.269 313.611Z" fill="#CEE3F5" stroke="#6E6E6E" stroke-width="0.4"/>
<path d="M432.103 274.526L431.794 277.611L437.863 279.154L441.771 283.577L442.491 286.354L448.251 289.337L451.337 292.32L450.514 294.583L452.16 297.051L457.817 300.034L460.491 306L457.714 304.971L455.554 306.309L452.057 306.103L449.177 304.457L446.503 304.971L442.491 303.943L441.977 306.411L437.554 307.337L434.88 305.794L425.314 310.217L421.097 308.16L416.983 314.126L410.914 312.789H406.491L403.509 311.451L401.143 311.76L398.88 308.674L393.531 305.486L390.754 305.589L387.977 307.543L384.789 312.069L383.246 312.789L384.171 315.566L384.069 319.886L382.731 318.549L377.28 319.371L373.886 317.931L366.171 320.091L365.451 325.543L362.983 330.686L362.057 325.234L354.034 317.623L352.594 311.966L350.126 310.114L348.891 298.903L347.246 298.08L350.023 295.92L354.343 287.383L356.606 284.914L359.28 285.531L364.32 283.577L365.863 281.829L367.817 284.606L375.737 280.8L383.554 280.286L388.286 274.731L386.023 273.086L387.977 271.749L399.6 270.72L402.994 268.251L404.64 265.371L411.017 259.509L410.811 257.554L417.189 254.263L420.686 254.983L424.491 259.2L427.371 263.931L427.474 269.383L426.034 270.411L426.137 273.703L432.103 274.526Z" fill="#CEE3F5" stroke="#6E6E6E" stroke-width="0.4"/>
</g>
<defs>
<clipPath id="clip0">
<rect width="720" height="720" fill="white"/>
</clipPath>
</defs>
</svg>
