<svg width="36" height="36" viewBox="0 0 36 36" fill="none" xmlns="http://www.w3.org/2000/svg">
<path d="M0 2.64024C0 1.22253 1.19166 0.0717773 2.66062 0.0717773H33.3394C34.8089 0.0717773 36 1.22253 36 2.64024V33.3597C36 34.7779 34.8089 35.9278 33.3394 35.9278H2.66062C1.1918 35.9278 0 34.778 0 33.3602V2.63982V2.64024Z" fill="#006699"/>
<path d="M10.9401 30.0784V13.9359H5.553V30.0784H10.9406H10.9401ZM8.24766 11.7323C10.1258 11.7323 11.2951 10.4927 11.2951 8.94364C11.26 7.35925 10.1258 6.1543 8.28338 6.1543C6.43965 6.1543 5.23547 7.35925 5.23547 8.9435C5.23547 10.4926 6.40435 11.7321 8.21236 11.7321H8.24724L8.24766 11.7323ZM13.9219 30.0784H19.3085V21.0647C19.3085 20.5828 19.3437 20.0998 19.486 19.7556C19.8752 18.7913 20.7616 17.7931 22.2501 17.7931C24.1989 17.7931 24.9789 19.2733 24.9789 21.4435V30.0784H30.3654V20.8228C30.3654 15.8647 27.7082 13.5574 24.164 13.5574C21.2583 13.5574 19.9821 15.175 19.2731 16.2768H19.3089V13.9365H13.9222C13.9925 15.4508 13.9217 30.0789 13.9217 30.0789L13.9219 30.0784Z" fill="white"/>
</svg>
